<svg width="1640" height="760" viewBox="0 0 1640 760" xmlns="http://www.w3.org/2000/svg">
  <rect width="1640" height="760" fill="#F4F3EE"/>
  <g fill="none" stroke="#DDDBD2" stroke-width="2"><path d="M-10 80 C 400 40 900 120 1650 60"/><path d="M-10 720 C 500 680 1100 740 1650 700"/></g>

  <text x="820" y="120" text-anchor="middle" font-family="'Helvetica Neue',Helvetica,Arial,sans-serif" font-weight="900" font-size="86" letter-spacing="-2" fill="#111111">IDEAS, SHIPPED.</text>

  <g font-family="ui-monospace,'Courier New',monospace" font-size="25" fill="#111111">
    <text x="240" y="196" font-weight="bold">hi, i'm rayid. AI engineer in new york.</text>
    <text x="300" y="242">i like the part where an idea becomes</text>
    <text x="300" y="330">so i prototype fast, and i sweat the boring details</text>
    <text x="300" y="366">that keep things alive in</text>
  </g>
  <rect x="294" y="262" width="276" height="34" fill="#FFD84D"/>
  <text x="300" y="288" font-family="ui-monospace,'Courier New',monospace" font-weight="bold" font-size="25" fill="#111111">working software.</text>
  <rect x="640" y="342" width="248" height="34" fill="#FFD84D"/>
  <text x="646" y="368" font-family="ui-monospace,'Courier New',monospace" font-size="25" fill="#111111">the real world.</text>

  <!-- About This Rayid window (System 7 memory bars) -->
  <g transform="translate(300,420)">
    <rect x="12" y="12" width="1040" height="286" fill="#C7CCD4"/>
    <rect x="0" y="0" width="1040" height="286" fill="#FFFFFF" stroke="#111111" stroke-width="3"/>
    <line x1="6" y1="12" x2="1034" y2="12" stroke="#111111" stroke-width="2"/>
    <line x1="6" y1="19" x2="1034" y2="19" stroke="#111111" stroke-width="2"/>
    <line x1="6" y1="26" x2="1034" y2="26" stroke="#111111" stroke-width="2"/>
    <rect x="380" y="4" width="280" height="30" fill="#FFFFFF"/>
    <text x="520" y="26" text-anchor="middle" font-family="ui-monospace,'Courier New',monospace" font-size="18" font-weight="bold" fill="#111111">About This Rayid</text>
    <text x="40" y="81" font-family="ui-monospace,'Courier New',monospace" font-size="22" fill="#111111">shipping</text>
<text x="370" y="81" text-anchor="end" font-family="ui-monospace,'Courier New',monospace" font-size="22" fill="#111111">8.9 MB</text>
<rect x="392" y="60" width="560" height="28" fill="#FFFFFF" stroke="#111111" stroke-width="3"/>
<rect x="395" y="63" width="520" height="22" fill="#4A90D9"/>
    <text x="40" y="123" font-family="ui-monospace,'Courier New',monospace" font-size="22" fill="#111111">curiosity</text>
<text x="370" y="123" text-anchor="end" font-family="ui-monospace,'Courier New',monospace" font-size="22" fill="#111111">8.2 MB</text>
<rect x="392" y="102" width="560" height="28" fill="#FFFFFF" stroke="#111111" stroke-width="3"/>
<rect x="395" y="105" width="481" height="22" fill="#4A90D9"/>
    <text x="40" y="165" font-family="ui-monospace,'Courier New',monospace" font-size="22" fill="#111111">coffee</text>
<text x="370" y="165" text-anchor="end" font-family="ui-monospace,'Courier New',monospace" font-size="22" fill="#111111">7.5 MB</text>
<rect x="392" y="144" width="560" height="28" fill="#FFFFFF" stroke="#111111" stroke-width="3"/>
<rect x="395" y="147" width="436" height="22" fill="#4A90D9"/>
    <text x="40" y="207" font-family="ui-monospace,'Courier New',monospace" font-size="22" fill="#111111">sleep</text>
<text x="370" y="207" text-anchor="end" font-family="ui-monospace,'Courier New',monospace" font-size="22" fill="#111111">2.1 MB</text>
<rect x="392" y="186" width="560" height="28" fill="#FFFFFF" stroke="#111111" stroke-width="3"/>
<rect x="395" y="189" width="123" height="22" fill="#4A90D9"/>
    <text x="40" y="249" font-family="ui-monospace,'Courier New',monospace" font-size="22" fill="#111111">meetings</text>
<text x="370" y="249" text-anchor="end" font-family="ui-monospace,'Courier New',monospace" font-size="22" fill="#111111">0.6 MB</text>
<rect x="392" y="228" width="560" height="28" fill="#FFFFFF" stroke="#111111" stroke-width="3"/>
<rect x="395" y="231" width="33" height="22" fill="#E5484D"/>
  </g>

  <text x="300" y="742" font-family="ui-monospace,'Courier New',monospace" font-weight="bold" font-size="23" fill="#111111">off hours: movies, side quests, one more commit.</text>

  <g transform="translate(1380,180)" fill="#F2B33D">
    <rect x="40" y="0" width="120" height="26"/><rect x="16" y="26" width="150" height="26"/><rect x="16" y="52" width="26" height="52"/><rect x="140" y="52" width="26" height="78"/><rect x="40" y="104" width="100" height="26"/><rect x="166" y="78" width="44" height="26"/><rect x="186" y="104" width="26" height="52"/><rect x="176" y="156" width="26" height="40"/><rect x="188" y="196" width="24" height="40"/><rect x="176" y="236" width="24" height="44"/><rect x="188" y="280" width="22" height="36"/>
  </g>
</svg>