<svg width="1640" height="620" viewBox="0 0 1640 620" xmlns="http://www.w3.org/2000/svg">
  <rect width="1640" height="620" fill="#F4F3EE"/>
  <g fill="none" stroke="#DDDBD2" stroke-width="2">
    <path d="M-10 560 C 300 520 700 600 1100 560 S 1500 540 1650 580"/>
    <path d="M1500 30 C 1560 90 1620 60 1650 110"/>
  </g>

  <!-- menu bar -->
  <rect x="0" y="0" width="1640" height="46" fill="#FFFFFF" stroke="#111111" stroke-width="3"/>
  <g font-family="ui-monospace,'Courier New',monospace" font-size="19" fill="#111111">
    <rect x="16" y="10" width="26" height="26" fill="#111111"/>
    <text x="60" y="30" font-weight="bold">rayid ali</text>
    <text x="210" y="30">AI engineer</text>
    <text x="390" y="30">systems thinker</text>
    <text x="620" y="30">new york</text>
    <rect x="1560" y="8" width="52" height="30" fill="#111111"/>
    <text x="1586" y="29" text-anchor="middle" fill="#FFFFFF" font-weight="bold">HI</text>
  </g>

  <!-- sky field -->
  <rect x="0" y="46" width="1640" height="430" fill="#AECBEB"/>
  <rect x="0" y="476" width="44" height="22" fill="#AECBEB"/>
<rect x="44" y="476" width="22" height="44" fill="#AECBEB"/>
<rect x="88" y="476" width="22" height="22" fill="#AECBEB"/>
<rect x="110" y="476" width="44" height="44" fill="#AECBEB"/>
<rect x="176" y="476" width="66" height="44" fill="#AECBEB"/>
<rect x="374" y="476" width="22" height="22" fill="#AECBEB"/>
<rect x="396" y="476" width="66" height="44" fill="#AECBEB"/>
<rect x="550" y="476" width="66" height="22" fill="#AECBEB"/>
<rect x="616" y="476" width="22" height="22" fill="#AECBEB"/>
<rect x="638" y="476" width="44" height="44" fill="#AECBEB"/>
<rect x="682" y="476" width="44" height="44" fill="#AECBEB"/>
<rect x="770" y="476" width="22" height="22" fill="#AECBEB"/>
<rect x="792" y="476" width="22" height="44" fill="#AECBEB"/>
<rect x="814" y="476" width="22" height="44" fill="#AECBEB"/>
<rect x="836" y="476" width="44" height="44" fill="#AECBEB"/>
<rect x="880" y="476" width="66" height="44" fill="#AECBEB"/>
<rect x="946" y="476" width="66" height="22" fill="#AECBEB"/>
<rect x="1012" y="476" width="66" height="44" fill="#AECBEB"/>
<rect x="1078" y="476" width="44" height="22" fill="#AECBEB"/>
<rect x="1122" y="476" width="44" height="22" fill="#AECBEB"/>
<rect x="1166" y="476" width="44" height="66" fill="#AECBEB"/>
<rect x="1254" y="476" width="66" height="44" fill="#AECBEB"/>
<rect x="1320" y="476" width="66" height="22" fill="#AECBEB"/>
<rect x="1386" y="476" width="22" height="22" fill="#AECBEB"/>
<rect x="1474" y="476" width="44" height="22" fill="#AECBEB"/>
<rect x="1518" y="476" width="66" height="22" fill="#AECBEB"/>
<rect x="1584" y="476" width="22" height="44" fill="#AECBEB"/>
<rect x="1606" y="476" width="22" height="66" fill="#AECBEB"/>
<rect x="1628" y="476" width="44" height="44" fill="#AECBEB"/>

  <!-- pixel name centered -->
  <g transform="translate(469,128)">
    <rect x="0" y="0" width="13" height="13" fill="#111111"/>
<rect x="13" y="0" width="13" height="13" fill="#111111"/>
<rect x="26" y="0" width="13" height="13" fill="#111111"/>
<rect x="39" y="0" width="13" height="13" fill="#111111"/>
<rect x="0" y="13" width="13" height="13" fill="#111111"/>
<rect x="52" y="13" width="13" height="13" fill="#111111"/>
<rect x="0" y="26" width="13" height="13" fill="#111111"/>
<rect x="52" y="26" width="13" height="13" fill="#111111"/>
<rect x="0" y="39" width="13" height="13" fill="#111111"/>
<rect x="13" y="39" width="13" height="13" fill="#111111"/>
<rect x="26" y="39" width="13" height="13" fill="#111111"/>
<rect x="39" y="39" width="13" height="13" fill="#111111"/>
<rect x="0" y="52" width="13" height="13" fill="#111111"/>
<rect x="26" y="52" width="13" height="13" fill="#111111"/>
<rect x="0" y="65" width="13" height="13" fill="#111111"/>
<rect x="39" y="65" width="13" height="13" fill="#111111"/>
<rect x="0" y="78" width="13" height="13" fill="#111111"/>
<rect x="52" y="78" width="13" height="13" fill="#111111"/>
<rect x="91" y="0" width="13" height="13" fill="#111111"/>
<rect x="104" y="0" width="13" height="13" fill="#111111"/>
<rect x="117" y="0" width="13" height="13" fill="#111111"/>
<rect x="78" y="13" width="13" height="13" fill="#111111"/>
<rect x="130" y="13" width="13" height="13" fill="#111111"/>
<rect x="78" y="26" width="13" height="13" fill="#111111"/>
<rect x="130" y="26" width="13" height="13" fill="#111111"/>
<rect x="78" y="39" width="13" height="13" fill="#111111"/>
<rect x="91" y="39" width="13" height="13" fill="#111111"/>
<rect x="104" y="39" width="13" height="13" fill="#111111"/>
<rect x="117" y="39" width="13" height="13" fill="#111111"/>
<rect x="130" y="39" width="13" height="13" fill="#111111"/>
<rect x="78" y="52" width="13" height="13" fill="#111111"/>
<rect x="130" y="52" width="13" height="13" fill="#111111"/>
<rect x="78" y="65" width="13" height="13" fill="#111111"/>
<rect x="130" y="65" width="13" height="13" fill="#111111"/>
<rect x="78" y="78" width="13" height="13" fill="#111111"/>
<rect x="130" y="78" width="13" height="13" fill="#111111"/>
<rect x="156" y="0" width="13" height="13" fill="#111111"/>
<rect x="208" y="0" width="13" height="13" fill="#111111"/>
<rect x="156" y="13" width="13" height="13" fill="#111111"/>
<rect x="208" y="13" width="13" height="13" fill="#111111"/>
<rect x="169" y="26" width="13" height="13" fill="#111111"/>
<rect x="195" y="26" width="13" height="13" fill="#111111"/>
<rect x="182" y="39" width="13" height="13" fill="#111111"/>
<rect x="182" y="52" width="13" height="13" fill="#111111"/>
<rect x="182" y="65" width="13" height="13" fill="#111111"/>
<rect x="182" y="78" width="13" height="13" fill="#111111"/>
<rect x="234" y="0" width="13" height="13" fill="#111111"/>
<rect x="247" y="0" width="13" height="13" fill="#111111"/>
<rect x="260" y="0" width="13" height="13" fill="#111111"/>
<rect x="273" y="0" width="13" height="13" fill="#111111"/>
<rect x="286" y="0" width="13" height="13" fill="#111111"/>
<rect x="260" y="13" width="13" height="13" fill="#111111"/>
<rect x="260" y="26" width="13" height="13" fill="#111111"/>
<rect x="260" y="39" width="13" height="13" fill="#111111"/>
<rect x="260" y="52" width="13" height="13" fill="#111111"/>
<rect x="260" y="65" width="13" height="13" fill="#111111"/>
<rect x="234" y="78" width="13" height="13" fill="#111111"/>
<rect x="247" y="78" width="13" height="13" fill="#111111"/>
<rect x="260" y="78" width="13" height="13" fill="#111111"/>
<rect x="273" y="78" width="13" height="13" fill="#111111"/>
<rect x="286" y="78" width="13" height="13" fill="#111111"/>
<rect x="312" y="0" width="13" height="13" fill="#111111"/>
<rect x="325" y="0" width="13" height="13" fill="#111111"/>
<rect x="338" y="0" width="13" height="13" fill="#111111"/>
<rect x="351" y="0" width="13" height="13" fill="#111111"/>
<rect x="312" y="13" width="13" height="13" fill="#111111"/>
<rect x="364" y="13" width="13" height="13" fill="#111111"/>
<rect x="312" y="26" width="13" height="13" fill="#111111"/>
<rect x="364" y="26" width="13" height="13" fill="#111111"/>
<rect x="312" y="39" width="13" height="13" fill="#111111"/>
<rect x="364" y="39" width="13" height="13" fill="#111111"/>
<rect x="312" y="52" width="13" height="13" fill="#111111"/>
<rect x="364" y="52" width="13" height="13" fill="#111111"/>
<rect x="312" y="65" width="13" height="13" fill="#111111"/>
<rect x="364" y="65" width="13" height="13" fill="#111111"/>
<rect x="312" y="78" width="13" height="13" fill="#111111"/>
<rect x="325" y="78" width="13" height="13" fill="#111111"/>
<rect x="338" y="78" width="13" height="13" fill="#111111"/>
<rect x="351" y="78" width="13" height="13" fill="#111111"/>
<rect x="481" y="0" width="13" height="13" fill="#111111"/>
<rect x="494" y="0" width="13" height="13" fill="#111111"/>
<rect x="507" y="0" width="13" height="13" fill="#111111"/>
<rect x="468" y="13" width="13" height="13" fill="#111111"/>
<rect x="520" y="13" width="13" height="13" fill="#111111"/>
<rect x="468" y="26" width="13" height="13" fill="#111111"/>
<rect x="520" y="26" width="13" height="13" fill="#111111"/>
<rect x="468" y="39" width="13" height="13" fill="#111111"/>
<rect x="481" y="39" width="13" height="13" fill="#111111"/>
<rect x="494" y="39" width="13" height="13" fill="#111111"/>
<rect x="507" y="39" width="13" height="13" fill="#111111"/>
<rect x="520" y="39" width="13" height="13" fill="#111111"/>
<rect x="468" y="52" width="13" height="13" fill="#111111"/>
<rect x="520" y="52" width="13" height="13" fill="#111111"/>
<rect x="468" y="65" width="13" height="13" fill="#111111"/>
<rect x="520" y="65" width="13" height="13" fill="#111111"/>
<rect x="468" y="78" width="13" height="13" fill="#111111"/>
<rect x="520" y="78" width="13" height="13" fill="#111111"/>
<rect x="546" y="0" width="13" height="13" fill="#111111"/>
<rect x="546" y="13" width="13" height="13" fill="#111111"/>
<rect x="546" y="26" width="13" height="13" fill="#111111"/>
<rect x="546" y="39" width="13" height="13" fill="#111111"/>
<rect x="546" y="52" width="13" height="13" fill="#111111"/>
<rect x="546" y="65" width="13" height="13" fill="#111111"/>
<rect x="546" y="78" width="13" height="13" fill="#111111"/>
<rect x="559" y="78" width="13" height="13" fill="#111111"/>
<rect x="572" y="78" width="13" height="13" fill="#111111"/>
<rect x="585" y="78" width="13" height="13" fill="#111111"/>
<rect x="598" y="78" width="13" height="13" fill="#111111"/>
<rect x="624" y="0" width="13" height="13" fill="#111111"/>
<rect x="637" y="0" width="13" height="13" fill="#111111"/>
<rect x="650" y="0" width="13" height="13" fill="#111111"/>
<rect x="663" y="0" width="13" height="13" fill="#111111"/>
<rect x="676" y="0" width="13" height="13" fill="#111111"/>
<rect x="650" y="13" width="13" height="13" fill="#111111"/>
<rect x="650" y="26" width="13" height="13" fill="#111111"/>
<rect x="650" y="39" width="13" height="13" fill="#111111"/>
<rect x="650" y="52" width="13" height="13" fill="#111111"/>
<rect x="650" y="65" width="13" height="13" fill="#111111"/>
<rect x="624" y="78" width="13" height="13" fill="#111111"/>
<rect x="637" y="78" width="13" height="13" fill="#111111"/>
<rect x="650" y="78" width="13" height="13" fill="#111111"/>
<rect x="663" y="78" width="13" height="13" fill="#111111"/>
<rect x="676" y="78" width="13" height="13" fill="#111111"/>
  </g>

  <!-- scattered labeled icons -->
  <g transform="translate(56,74)"><rect x="6" y="6" width="12" height="12" fill="#111111"/><rect x="42" y="6" width="12" height="12" fill="#111111"/><rect x="6" y="42" width="12" height="12" fill="#111111"/><rect x="42" y="42" width="12" height="12" fill="#111111"/><rect x="16" y="16" width="28" height="28" fill="none" stroke="#111111" stroke-width="6"/><text x="30" y="86" text-anchor="middle" font-family="ui-monospace,'Courier New',monospace" font-size="15" fill="#111111">command</text></g>
  <g transform="translate(1524,74)"><path d="M14 14 L46 8 L46 24 L14 30 Z" fill="#FFFFFF" stroke="#111111" stroke-width="3"/><path d="M14 26 L46 20 L46 36 L14 42 Z" fill="#FFFFFF" stroke="#111111" stroke-width="3"/><path d="M14 38 L46 32 L46 48 L14 54 Z" fill="#FFFFFF" stroke="#111111" stroke-width="3"/><text x="24" y="52" font-family="ui-monospace,monospace" font-weight="bold" font-size="16" fill="#111111">A</text><text x="30" y="86" text-anchor="middle" font-family="ui-monospace,'Courier New',monospace" font-size="15" fill="#111111">fonts</text></g>
  <g transform="translate(96,268)"><circle cx="30" cy="38" r="20" fill="#111111"/><rect x="26" y="12" width="8" height="10" fill="#111111"/><path d="M34 10 l8 -6 M40 12 l6 -2 M38 4 l2 -4" stroke="#111111" stroke-width="3" fill="none"/><text x="30" y="86" text-anchor="middle" font-family="ui-monospace,'Courier New',monospace" font-size="15" fill="#111111">bomb</text></g>
  <g transform="translate(48,376)"><path d="M6 10 L44 10 L54 20 L54 54 L6 54 Z" fill="#FFFFFF" stroke="#111111" stroke-width="3"/><rect x="16" y="10" width="20" height="12" fill="#111111"/><rect x="14" y="32" width="32" height="18" fill="#FFFFFF" stroke="#111111" stroke-width="3"/><text x="30" y="86" text-anchor="middle" font-family="ui-monospace,'Courier New',monospace" font-size="15" fill="#111111">floppy disk</text></g>
  <g transform="translate(1500,262)"><rect x="10" y="6" width="40" height="48" rx="4" fill="#FFFFFF" stroke="#111111" stroke-width="3"/><rect x="16" y="12" width="28" height="24" fill="#FFFFFF" stroke="#111111" stroke-width="3"/><rect x="22" y="18" width="4" height="8" fill="#111111"/><rect x="34" y="18" width="4" height="8" fill="#111111"/><path d="M24 30 q6 5 12 0" stroke="#111111" stroke-width="3" fill="none"/><rect x="16" y="44" width="10" height="4" fill="#111111"/><text x="30" y="86" text-anchor="middle" font-family="ui-monospace,'Courier New',monospace" font-size="15" fill="#111111">happy mac</text></g>
  <g transform="translate(1532,382)"><rect x="14" y="18" width="32" height="36" fill="#FFFFFF" stroke="#111111" stroke-width="3"/><rect x="10" y="12" width="40" height="6" fill="#111111"/><rect x="24" y="6" width="12" height="6" fill="#111111"/><line x1="22" y1="24" x2="22" y2="48" stroke="#111111" stroke-width="3"/><line x1="30" y1="24" x2="30" y2="48" stroke="#111111" stroke-width="3"/><line x1="38" y1="24" x2="38" y2="48" stroke="#111111" stroke-width="3"/><text x="30" y="86" text-anchor="middle" font-family="ui-monospace,'Courier New',monospace" font-size="15" fill="#111111">trash</text></g>
  <g transform="translate(1310,86)"><rect x="8" y="24" width="44" height="28" fill="#FFFFFF" stroke="#111111" stroke-width="3"/><path d="M8 24 L52 24 L56 12 L12 12 Z" fill="#111111"/><path d="M16 13 l6 10 M26 13 l6 10 M36 13 l6 10" stroke="#FFFFFF" stroke-width="3"/><text x="30" y="86" text-anchor="middle" font-family="ui-monospace,'Courier New',monospace" font-size="15" fill="#111111">action!</text></g>
  <g transform="translate(250,86)"><rect x="26" y="6" width="8" height="26" fill="#111111"/><rect x="22" y="32" width="16" height="10" fill="#F2B33D" stroke="#111111" stroke-width="3"/><rect x="24" y="42" width="12" height="12" fill="#111111"/><text x="30" y="86" text-anchor="middle" font-family="ui-monospace,'Courier New',monospace" font-size="15" fill="#111111">paint</text></g>

  <!-- quote window -->
  <g transform="translate(430,300)">
    <rect x="10" y="10" width="620" height="132" fill="#C7CCD4"/>
    <rect x="0" y="0" width="620" height="132" fill="#FFFFFF" stroke="#111111" stroke-width="3"/>
    <path d="M596 0 L620 0 L620 24 Z" fill="#111111"/>
    <g font-family="ui-monospace,'Courier New',monospace" font-weight="bold" font-size="24" fill="#111111">
      <text x="24" y="42">HOW TO SHIP REAL PRODUCTS BY HAVING</text>
      <text x="24" y="76">AN ENGINEERING APPROACH</text>
      <text x="220" y="110">TO WILD IDEAS</text>
    </g>
    <text x="452" y="88" font-family="ui-monospace,'Courier New',monospace" font-size="19" fill="#111111">// and knowing</text>
    <rect x="446" y="94" width="164" height="26" fill="#FFD84D"/>
    <text x="452" y="113" font-family="ui-monospace,'Courier New',monospace" font-size="19" fill="#111111">how to prompt</text>
  </g>

  <!-- macpaint mini window -->
  <g transform="translate(1080,300)">
    <rect x="10" y="10" width="330" height="150" fill="#C7CCD4"/>
    <rect x="0" y="0" width="330" height="150" fill="#FFFFFF" stroke="#111111" stroke-width="3"/>
    <line x1="4" y1="10" x2="326" y2="10" stroke="#111111" stroke-width="2"/>
    <line x1="4" y1="16" x2="326" y2="16" stroke="#111111" stroke-width="2"/>
    <line x1="4" y1="22" x2="326" y2="22" stroke="#111111" stroke-width="2"/>
    <rect x="130" y="4" width="76" height="22" fill="#FFFFFF"/>
    <text x="168" y="20" text-anchor="middle" font-family="ui-monospace,monospace" font-size="14" fill="#111111">canvas</text>
    <rect x="20" y="44" width="42" height="14" fill="#E5484D"/><rect x="20" y="58" width="70" height="14" fill="#F2B33D"/><rect x="20" y="72" width="120" height="14" fill="#FFD84D"/><rect x="20" y="86" width="170" height="14" fill="#6CBE45"/><rect x="20" y="100" width="220" height="14" fill="#4A90D9"/><rect x="20" y="114" width="260" height="14" fill="#B26BC1"/>
    <rect x="252" y="52" width="10" height="40" fill="#111111"/><rect x="246" y="92" width="22" height="14" fill="#F2B33D" stroke="#111111" stroke-width="3"/>
  </g>
</svg>