<svg width="1640" height="660" viewBox="0 0 1640 660" xmlns="http://www.w3.org/2000/svg"><defs><clipPath id="pclip"><rect x="563" y="453" width="446" height="24"/></clipPath></defs>
  <rect width="1640" height="660" fill="#F4F3EE"/>
  <g fill="none" stroke="#DDDBD2" stroke-width="2"><path d="M-10 60 C 500 20 1100 90 1650 40"/></g>
  <g transform="translate(70,50)">
    <rect x="12" y="12" width="1500" height="560" fill="#C7CCD4"/>
    <rect x="0" y="0" width="1500" height="560" fill="#FAF3D7" stroke="#111111" stroke-width="3"/>
    <line x1="6" y1="12" x2="1494" y2="12" stroke="#111111" stroke-width="2"/>
    <line x1="6" y1="19" x2="1494" y2="19" stroke="#111111" stroke-width="2"/>
    <line x1="6" y1="26" x2="1494" y2="26" stroke="#111111" stroke-width="2"/>
    <rect x="620" y="4" width="260" height="30" fill="#FAF3D7"/>
    <text x="750" y="26" text-anchor="middle" font-family="ui-monospace,'Courier New',monospace" font-size="18" fill="#111111">now_playing</text>

    <g font-family="ui-monospace,'Courier New',monospace" font-weight="bold" fill="#111111">
      </g><text x="150" y="150" font-family="'Helvetica Neue',Helvetica,Arial,sans-serif" font-weight="900" font-size="84" letter-spacing="-2" fill="#111111">"BELI, BUT</text><g font-family="ui-monospace,'Courier New',monospace" font-weight="bold" fill="#111111">
      </g><text x="330" y="240" font-family="'Helvetica Neue',Helvetica,Arial,sans-serif" font-weight="900" font-size="84" letter-spacing="-2" fill="#111111">FOR MOVIES"</text><g font-family="ui-monospace,'Courier New',monospace" font-weight="bold" fill="#111111">
    </g>
    <g font-family="ui-monospace,'Courier New',monospace" font-size="25" fill="#111111">
      <text x="560" y="300">CINECHRONY lets you rank films head to head,</text>
      <text x="560" y="336">share lists with friends, and AI pulls titles</text>
      <text x="560" y="440" font-weight="bold">STATUS: shipping to the app store</text>
    <rect x="560" y="452" width="560" height="26" fill="#FFFFFF" stroke="#111111" stroke-width="3"/>
    <g clip-path="url(#pclip)"><g fill="#4A90D9">
      <rect x="562" y="455" width="14" height="20"/><rect x="590" y="455" width="14" height="20"/><rect x="618" y="455" width="14" height="20"/><rect x="646" y="455" width="14" height="20"/><rect x="674" y="455" width="14" height="20"/><rect x="702" y="455" width="14" height="20"/><rect x="730" y="455" width="14" height="20"/><rect x="758" y="455" width="14" height="20"/><rect x="786" y="455" width="14" height="20"/><rect x="814" y="455" width="14" height="20"/><rect x="842" y="455" width="14" height="20"/><rect x="870" y="455" width="14" height="20"/><rect x="898" y="455" width="14" height="20"/><rect x="926" y="455" width="14" height="20"/><rect x="954" y="455" width="14" height="20"/><rect x="982" y="455" width="14" height="20"/></g></g>
    <text x="1136" y="472" font-family="ui-monospace,'Courier New',monospace" font-size="21" fill="#111111">87%</text>
      <text x="560" y="502">also in the lab: an AI that reads engineering</text>
      <text x="560" y="536">drawings and answers like a senior engineer.</text>
    </g>
    <rect x="554" y="352" width="530" height="32" fill="#FFD84D"/>
    <text x="560" y="376" font-family="ui-monospace,'Courier New',monospace" font-size="25" fill="#111111">straight out of tiktoks and reels.</text>
    <text x="80" y="530" font-family="ui-monospace,'Courier New',monospace" font-weight="bold" font-size="24" fill="#111111">→ github.com/rayidali/cinechrony</text>

    <g transform="translate(120,290)">
      <rect x="0" y="0" width="300" height="180" fill="#FFFFFF" stroke="#111111" stroke-width="3"/>
      <rect x="16" y="16" width="80" height="110" fill="#AECBEB" stroke="#111111" stroke-width="3"/>
      <rect x="110" y="16" width="80" height="110" fill="#F2B33D" stroke="#111111" stroke-width="3"/>
      <rect x="204" y="16" width="80" height="110" fill="#E5484D" stroke="#111111" stroke-width="3"/>
      <text x="150" y="160" text-anchor="middle" font-family="ui-monospace,monospace" font-size="17" fill="#111111">tonight's picks</text>
    </g>
  </g>
</svg>