<svg width="1640" height="46" viewBox="0 0 1640 46" xmlns="http://www.w3.org/2000/svg">
<rect width="1640" height="46" fill="#F4F3EE"/><rect x="0" y="30" width="1640" height="6" fill="#AECBEB"/><rect x="0" y="20" width="34" height="10" fill="#AECBEB"/><rect x="34" y="20" width="26" height="10" fill="#AECBEB"/><rect x="60" y="12" width="34" height="18" fill="#AECBEB"/><rect x="94" y="24" width="34" height="6" fill="#AECBEB"/><rect x="128" y="24" width="26" height="6" fill="#AECBEB"/><rect x="154" y="16" width="34" height="14" fill="#AECBEB"/><rect x="188" y="20" width="18" height="10" fill="#AECBEB"/><rect x="206" y="12" width="34" height="18" fill="#AECBEB"/><rect x="240" y="12" width="26" height="18" fill="#AECBEB"/><rect x="266" y="20" width="18" height="10" fill="#AECBEB"/><rect x="284" y="20" width="34" height="10" fill="#AECBEB"/><rect x="318" y="12" width="34" height="18" fill="#AECBEB"/><rect x="352" y="24" width="34" height="6" fill="#AECBEB"/><rect x="386" y="24" width="18" height="6" fill="#AECBEB"/><rect x="404" y="24" width="26" height="6" fill="#AECBEB"/><rect x="430" y="24" width="26" height="6" fill="#AECBEB"/><rect x="456" y="12" width="34" height="18" fill="#AECBEB"/><rect x="490" y="12" width="34" height="18" fill="#AECBEB"/><rect x="524" y="12" width="26" height="18" fill="#AECBEB"/><rect x="550" y="12" width="18" height="18" fill="#AECBEB"/><rect x="568" y="16" width="18" height="14" fill="#AECBEB"/><rect x="586" y="24" width="18" height="6" fill="#AECBEB"/><rect x="604" y="12" width="18" height="18" fill="#AECBEB"/><rect x="622" y="16" width="34" height="14" fill="#AECBEB"/><rect x="656" y="12" width="34" height="18" fill="#AECBEB"/><rect x="690" y="16" width="26" height="14" fill="#AECBEB"/><rect x="716" y="12" width="34" height="18" fill="#AECBEB"/><rect x="750" y="16" width="34" height="14" fill="#AECBEB"/><rect x="784" y="12" width="34" height="18" fill="#AECBEB"/><rect x="818" y="20" width="26" height="10" fill="#AECBEB"/><rect x="844" y="24" width="26" height="6" fill="#AECBEB"/><rect x="870" y="20" width="34" height="10" fill="#AECBEB"/><rect x="904" y="16" width="34" height="14" fill="#AECBEB"/><rect x="938" y="24" width="34" height="6" fill="#AECBEB"/><rect x="972" y="20" width="34" height="10" fill="#AECBEB"/><rect x="1006" y="16" width="26" height="14" fill="#AECBEB"/><rect x="1032" y="24" width="18" height="6" fill="#AECBEB"/><rect x="1050" y="12" width="34" height="18" fill="#AECBEB"/><rect x="1084" y="12" width="18" height="18" fill="#AECBEB"/><rect x="1102" y="16" width="18" height="14" fill="#AECBEB"/><rect x="1120" y="12" width="18" height="18" fill="#AECBEB"/><rect x="1138" y="24" width="26" height="6" fill="#AECBEB"/><rect x="1164" y="12" width="26" height="18" fill="#AECBEB"/><rect x="1190" y="24" width="18" height="6" fill="#AECBEB"/><rect x="1208" y="24" width="26" height="6" fill="#AECBEB"/><rect x="1234" y="16" width="34" height="14" fill="#AECBEB"/><rect x="1268" y="16" width="34" height="14" fill="#AECBEB"/><rect x="1302" y="20" width="18" height="10" fill="#AECBEB"/><rect x="1320" y="16" width="18" height="14" fill="#AECBEB"/><rect x="1338" y="24" width="18" height="6" fill="#AECBEB"/><rect x="1356" y="24" width="18" height="6" fill="#AECBEB"/><rect x="1374" y="12" width="26" height="18" fill="#AECBEB"/><rect x="1400" y="16" width="18" height="14" fill="#AECBEB"/><rect x="1418" y="24" width="26" height="6" fill="#AECBEB"/><rect x="1444" y="16" width="26" height="14" fill="#AECBEB"/><rect x="1470" y="20" width="26" height="10" fill="#AECBEB"/><rect x="1496" y="12" width="26" height="18" fill="#AECBEB"/><rect x="1522" y="12" width="34" height="18" fill="#AECBEB"/><rect x="1556" y="24" width="34" height="6" fill="#AECBEB"/><rect x="1590" y="16" width="26" height="14" fill="#AECBEB"/><rect x="1616" y="20" width="26" height="10" fill="#AECBEB"/></svg>