<svg width="1640" height="340" viewBox="0 0 1640 340" xmlns="http://www.w3.org/2000/svg">
  <rect width="1640" height="340" fill="#AECBEB"/>
  <g fill="none" stroke="#8FB6E0" stroke-width="2"><path d="M-10 300 C 500 260 1100 320 1650 280"/></g>
  <text x="820" y="120" text-anchor="middle" font-family="'Helvetica Neue',Helvetica,Arial,sans-serif" font-weight="900" font-size="76" letter-spacing="-2" fill="#111111">LET'S CONNECT</text>
 <g transform="translate(1330,150)" fill="#FFFFFF" stroke="#111111" stroke-width="3"><path d="M18 0 L26 0 L26 26 L34 22 L42 26 L50 24 L58 28 L58 52 L50 66 L22 66 L10 46 L2 34 L10 28 L18 34 Z"/></g>
  <g font-family="ui-monospace,'Courier New',monospace" font-weight="bold" font-size="24" fill="#111111">
    <rect x="330" y="170" width="360" height="52" fill="#FFFFFF" stroke="#111111" stroke-width="3"/>
    <text x="510" y="204" text-anchor="middle">rayidali3@gmail.com</text>
    <rect x="720" y="170" width="230" height="52" fill="#FFD84D" stroke="#111111" stroke-width="3"/>
    <text x="835" y="204" text-anchor="middle">in/rayidali</text>
    <rect x="980" y="170" width="330" height="52" fill="#FFFFFF" stroke="#111111" stroke-width="3"/>
    <text x="1145" y="204" text-anchor="middle">rayidali.github.io</text>
  </g>
  <text x="820" y="292" text-anchor="middle" font-family="ui-monospace,'Courier New',monospace" font-size="19" fill="#111111">© 2026 rayid ali · new york · made of pixels</text>
</svg>