<svg width="1640" height="760" viewBox="0 0 1640 760" xmlns="http://www.w3.org/2000/svg">
  <rect width="1640" height="760" fill="#F4F3EE"/>
  <text x="820" y="96" text-anchor="middle" font-family="'Helvetica Neue',Helvetica,Arial,sans-serif" font-weight="900" font-size="80" letter-spacing="-2" fill="#111111">THE TOOLBOX</text>

  <!-- system disk window -->
  <g transform="translate(120,140)">
    <rect x="14" y="14" width="1400" height="540" fill="#C7CCD4"/>
    <rect x="0" y="0" width="1400" height="540" fill="#FFFFFF" stroke="#111111" stroke-width="3.5"/>
    <line x1="6" y1="13" x2="1394" y2="13" stroke="#111111" stroke-width="2"/>
    <line x1="6" y1="20" x2="1394" y2="20" stroke="#111111" stroke-width="2"/>
    <line x1="6" y1="27" x2="1394" y2="27" stroke="#111111" stroke-width="2"/>
    <rect x="560" y="4" width="280" height="30" fill="#FFFFFF"/>
    <text x="700" y="26" text-anchor="middle" font-family="ui-monospace,'Courier New',monospace" font-size="18" font-weight="bold" fill="#111111">system_disk</text>
    <text x="30" y="58" font-family="ui-monospace,'Courier New',monospace" font-size="18" fill="#111111">12 items</text>
    <text x="1370" y="58" text-anchor="end" font-family="ui-monospace,'Courier New',monospace" font-size="18" fill="#111111">1 in trash</text>

    <g transform="translate(70,90)"><rect x="-12" y="-12" width="132" height="128" fill="none" stroke="#111111" stroke-width="2.5" stroke-dasharray="7 6"/>
    <path d="M10 6 L86 6 L104 24 L104 82 L10 82 Z" fill="#AECBEB" stroke="#111111" stroke-width="3.5"/>
    <rect x="30" y="6" width="36" height="20" fill="#111111"/>
    <rect x="24" y="44" width="66" height="30" fill="#FFFFFF" stroke="#111111" stroke-width="3"/>
    <text x="57" y="108" text-anchor="middle" font-family="ui-monospace,'Courier New',monospace" font-size="19" fill="#111111">python</text></g>
    <g transform="translate(300,90)">
    <path d="M10 6 L86 6 L104 24 L104 82 L10 82 Z" fill="#AECBEB" stroke="#111111" stroke-width="3.5"/>
    <rect x="30" y="6" width="36" height="20" fill="#111111"/>
    <rect x="24" y="44" width="66" height="30" fill="#FFFFFF" stroke="#111111" stroke-width="3"/>
    <text x="57" y="108" text-anchor="middle" font-family="ui-monospace,'Courier New',monospace" font-size="19" fill="#111111">typescript</text></g>
    <g transform="translate(530,90)">
    <path d="M10 6 L86 6 L104 24 L104 82 L10 82 Z" fill="#FFFFFF" stroke="#111111" stroke-width="3.5"/>
    <rect x="30" y="6" width="36" height="20" fill="#111111"/>
    <rect x="24" y="44" width="66" height="30" fill="#FFFFFF" stroke="#111111" stroke-width="3"/>
    <text x="57" y="108" text-anchor="middle" font-family="ui-monospace,'Courier New',monospace" font-size="19" fill="#111111">react/next</text></g>
    <g transform="translate(760,90)">
    <path d="M10 6 L86 6 L104 24 L104 82 L10 82 Z" fill="#FFFFFF" stroke="#111111" stroke-width="3.5"/>
    <rect x="30" y="6" width="36" height="20" fill="#111111"/>
    <rect x="24" y="44" width="66" height="30" fill="#FFFFFF" stroke="#111111" stroke-width="3"/>
    <text x="57" y="108" text-anchor="middle" font-family="ui-monospace,'Courier New',monospace" font-size="19" fill="#111111">fastapi</text></g>
    <g transform="translate(990,90)">
    <path d="M10 6 L86 6 L104 24 L104 82 L10 82 Z" fill="#FFFFFF" stroke="#111111" stroke-width="3.5"/>
    <rect x="30" y="6" width="36" height="20" fill="#111111"/>
    <rect x="24" y="44" width="66" height="30" fill="#FFFFFF" stroke="#111111" stroke-width="3"/>
    <text x="57" y="108" text-anchor="middle" font-family="ui-monospace,'Courier New',monospace" font-size="19" fill="#111111">postgres</text></g>
    <g transform="translate(1220,90)">
    <path d="M10 6 L86 6 L104 24 L104 82 L10 82 Z" fill="#FFD84D" stroke="#111111" stroke-width="3.5"/>
    <rect x="30" y="6" width="36" height="20" fill="#111111"/>
    <rect x="24" y="44" width="66" height="30" fill="#FFFFFF" stroke="#111111" stroke-width="3"/>
    <text x="57" y="108" text-anchor="middle" font-family="ui-monospace,'Courier New',monospace" font-size="19" fill="#111111">firebase</text></g>

    <g transform="translate(70,260)"><rect x="-12" y="-12" width="132" height="128" fill="none" stroke="#111111" stroke-width="2.5" stroke-dasharray="7 6"/>
    <path d="M10 6 L86 6 L104 24 L104 82 L10 82 Z" fill="#E5484D" stroke="#111111" stroke-width="3.5"/>
    <rect x="30" y="6" width="36" height="20" fill="#111111"/>
    <rect x="24" y="44" width="66" height="30" fill="#FFFFFF" stroke="#111111" stroke-width="3"/>
    <text x="57" y="108" text-anchor="middle" font-family="ui-monospace,'Courier New',monospace" font-size="19" fill="#111111">claude+gpt</text></g>
    <g transform="translate(300,260)"><rect x="-12" y="-12" width="132" height="128" fill="none" stroke="#111111" stroke-width="2.5" stroke-dasharray="7 6"/>
    <path d="M10 6 L86 6 L104 24 L104 82 L10 82 Z" fill="#F2B33D" stroke="#111111" stroke-width="3.5"/>
    <rect x="30" y="6" width="36" height="20" fill="#111111"/>
    <rect x="24" y="44" width="66" height="30" fill="#FFFFFF" stroke="#111111" stroke-width="3"/>
    <text x="57" y="108" text-anchor="middle" font-family="ui-monospace,'Courier New',monospace" font-size="19" fill="#111111">n8n</text></g>
    <g transform="translate(530,260)">
    <path d="M10 6 L86 6 L104 24 L104 82 L10 82 Z" fill="#FFFFFF" stroke="#111111" stroke-width="3.5"/>
    <rect x="30" y="6" width="36" height="20" fill="#111111"/>
    <rect x="24" y="44" width="66" height="30" fill="#FFFFFF" stroke="#111111" stroke-width="3"/>
    <text x="57" y="108" text-anchor="middle" font-family="ui-monospace,'Courier New',monospace" font-size="19" fill="#111111">rag pipelines</text></g>
    <g transform="translate(760,260)">
    <path d="M10 6 L86 6 L104 24 L104 82 L10 82 Z" fill="#FFFFFF" stroke="#111111" stroke-width="3.5"/>
    <rect x="30" y="6" width="36" height="20" fill="#111111"/>
    <rect x="24" y="44" width="66" height="30" fill="#FFFFFF" stroke="#111111" stroke-width="3"/>
    <text x="57" y="108" text-anchor="middle" font-family="ui-monospace,'Courier New',monospace" font-size="19" fill="#111111">pytorch</text></g>
    <g transform="translate(990,260)">
    <path d="M10 6 L86 6 L104 24 L104 82 L10 82 Z" fill="#FFFFFF" stroke="#111111" stroke-width="3.5"/>
    <rect x="30" y="6" width="36" height="20" fill="#111111"/>
    <rect x="24" y="44" width="66" height="30" fill="#FFFFFF" stroke="#111111" stroke-width="3"/>
    <text x="57" y="108" text-anchor="middle" font-family="ui-monospace,'Courier New',monospace" font-size="19" fill="#111111">docker</text></g>
    <g transform="translate(1220,260)">
    <path d="M10 6 L86 6 L104 24 L104 82 L10 82 Z" fill="#FFFFFF" stroke="#111111" stroke-width="3.5"/>
    <rect x="30" y="6" width="36" height="20" fill="#111111"/>
    <rect x="24" y="44" width="66" height="30" fill="#FFFFFF" stroke="#111111" stroke-width="3"/>
    <text x="57" y="108" text-anchor="middle" font-family="ui-monospace,'Courier New',monospace" font-size="19" fill="#111111">gcp/aws</text></g>

    <text x="30" y="468" font-family="ui-monospace,'Courier New',monospace" font-size="19" fill="#111111">selected: the daily drivers</text>
    <text x="30" y="500" font-family="ui-monospace,'Courier New',monospace" font-size="19" fill="#8B8B8B">also on the shelf: sql pipelines, websockets, graphql, gitlab ci</text>

    <!-- trash with jquery -->
    <g transform="translate(1236,412)">
      <rect x="18" y="26" width="52" height="60" fill="#FFFFFF" stroke="#111111" stroke-width="3.5"/>
      <rect x="12" y="18" width="64" height="8" fill="#111111"/>
      <rect x="34" y="10" width="20" height="8" fill="#111111"/>
      <line x1="32" y1="36" x2="32" y2="76" stroke="#111111" stroke-width="3"/>
      <line x1="44" y1="36" x2="44" y2="76" stroke="#111111" stroke-width="3"/>
      <line x1="56" y1="36" x2="56" y2="76" stroke="#111111" stroke-width="3"/>
      <g transform="translate(46,-2) rotate(14)"><rect x="0" y="0" width="46" height="26" fill="#FFD84D" stroke="#111111" stroke-width="2.5"/><text x="23" y="18" text-anchor="middle" font-family="ui-monospace,'Courier New',monospace" font-size="13" fill="#111111">jquery</text></g>
      <text x="44" y="112" text-anchor="middle" font-family="ui-monospace,'Courier New',monospace" font-size="18" fill="#111111">trash</text>
    </g>
  </g>

  <!-- hand cursor pointing at n8n -->
  <g transform="translate(500,430)" fill="#FFFFFF" stroke="#111111" stroke-width="3">
    <path d="M18 0 L26 0 L26 26 L34 22 L42 26 L50 24 L58 28 L58 52 L50 66 L22 66 L10 46 L2 34 L10 28 L18 34 Z"/>
  </g>
</svg>